<?xml version="1.0" encoding="utf-8"?>
<!-- Generator: Adobe Illustrator 24.0.2, SVG Export Plug-In . SVG Version: 6.00 Build 0)  -->
<svg version="1.1" id="Layer_1" xmlns="http://www.w3.org/2000/svg" xmlns:xlink="http://www.w3.org/1999/xlink" x="0px" y="0px"
	 viewBox="0 0 700 300" style="enable-background:new 0 0 700 300;" xml:space="preserve">
<style type="text/css">
	.st0{fill:#2394BC;}
	.st1{fill:#EFC75E;}
	.st2{fill:#E2574C;}
	.st3{fill:#F4B459;}
</style>
<g>
	<g>
		<g>
			<path class="st0" d="M144.9,105l-17.6,109.8h28.2L173.1,105C173.1,105,144.9,105,144.9,105z M230,149.7
				c-9.9-4.9-15.9-8.2-15.9-13.1c0.1-4.5,5.1-9.2,16.2-9.2c9.2-0.2,15.9,1.9,21,4.1l2.6,1.1l3.8-23c-5.6-2.2-14.4-4.5-25.3-4.5
				c-27.8,0-47.5,14.5-47.6,35.2c-0.2,15.3,14,23.8,24.7,28.8c10.9,5.2,14.6,8.6,14.6,13.2c-0.1,7.1-8.8,10.4-16.9,10.4
				c-11.2,0-17.3-1.7-26.5-5.7l-3.7-1.7l-3.9,23.9c6.6,2.9,18.8,5.5,31.4,5.7c29.6,0,48.8-14.3,49.1-36.3
				C253.8,166.6,246.2,157.3,230,149.7z M330,105.3h-21.8c-6.7,0-11.8,1.9-14.7,8.8l-41.9,100.6h29.6l8.2-21.8h33.1l4.2,21.9h26.1
				L330,105.3z M297.5,171c0.6,0.1,11.4-35.6,11.4-35.6l8.6,35.6C317.5,171,303.1,171,297.5,171z M103.7,105l-27.6,74.6l-3-14.7
				c-5.1-17-21.1-35.4-39-44.6l25.3,94.4h29.8L133.6,105L103.7,105L103.7,105z"/>
		</g>
	</g>
	<path class="st1" d="M63.8,119.2c-2.2-8.4-9-14-18.3-14.1H1.7l-0.5,2c34.1,8.4,62.8,34.3,72.1,58.7L63.8,119.2z"/>
</g>
<g>
	<path class="st2" d="M590.9,160c0,49.7-40.3,90-90,90s-90-40.3-90-90s40.3-90,90-90S590.9,110.3,590.9,160z"/>
	<path class="st3" d="M609,70c-20.2,0-38.8,6.7-53.8,17.9l0.1,0c3,2.9,6.2,4.9,8.7,8.1l-18.7,0.3c-2.9,3-5.6,6.2-8.1,9.5h33
		c2.5,3,4.8,5.6,6.9,9h-45.9c-1.7,2.9-3.2,5.9-4.6,9h55.8c1.5,3.1,2.8,5.4,3.9,8.7h-62.9c-1,3.1-1.9,6.3-2.5,9.5h68.1
		c0.7,3.1,1.2,6,1.5,8.9h-71c-0.3,3-0.5,6-0.5,9h71.9c0,3.2-0.2,6.1-0.5,9h-70.9c0.3,3.1,0.8,6,1.4,9h68c-0.7,2.9-1.5,5.8-2.5,8.9
		h-63.1c1,3.1,2.1,6.1,3.4,9h55.9c-1.5,3.3-3.3,5.9-5.2,9H531c1.8,3.1,3.8,6.2,6,9l33.2,0.5c-2.8,3.4-6.5,5.4-9.8,8.4
		c0.2,0.1-5.3,0-16-0.2c16.4,16.9,39.2,27.4,64.6,27.4c49.7,0,90-40.3,90-90S658.7,70,609,70z"/>
</g>
</svg>
