<?xml version="1.0" encoding="utf-8"?>
<!-- Generator: Adobe Illustrator 12.0.0, SVG Export Plug-In . SVG Version: 6.00 Build 51448)  -->
<!DOCTYPE svg PUBLIC "-//W3C//DTD SVG 1.1//EN" "http://www.w3.org/Graphics/SVG/1.1/DTD/svg11.dtd" [
	<!ENTITY ns_svg "http://www.w3.org/2000/svg">
	<!ENTITY ns_xlink "http://www.w3.org/1999/xlink">
]>
<svg  version="1.1" id="Layer_1" xmlns="&ns_svg;" xmlns:xlink="&ns_xlink;" width="164.219" height="34.333"
	 viewBox="0 0 164.219 34.333" overflow="visible" enable-background="new 0 0 164.219 34.333" xml:space="preserve">
<g>
	<polygon fill="#33A1D6" points="3.003,10.625 0,15.829 5.202,24.833 13.413,10.623 	"/>
	<polygon fill="#33A1D6" points="30.254,5.221 27.279,0.071 16.872,0.073 25.056,14.255 	"/>
	<polygon fill="#989898" points="15.104,0.073 9.091,0.075 3.886,9.094 20.283,9.09 	"/>
	<polygon fill="#33A1D6" points="31.14,6.754 22.957,21.026 33.375,21.024 36.377,15.821 	"/>
	<polygon fill="#33A1D6" points="21.197,31.577 27.287,31.575 32.491,22.556 16.018,22.558 	"/>
	<polygon fill="#33A1D6" points="6.085,26.362 9.098,31.579 19.434,31.577 11.302,17.5 	"/>
	<rect x="45.356" y="0.35" fill="#FFFFFF" width="3.407" height="15.265"/>
	<polygon fill="#FFFFFF" points="63.416,0.35 66.823,0.35 66.823,15.615 63.416,15.615 56.144,6.05 56.144,15.615 52.737,15.615 
		52.737,0.35 55.925,0.35 63.416,10.176 	"/>
	<polygon fill="#FFFFFF" points="77.261,3.298 77.261,15.615 73.854,15.615 73.854,3.298 69.53,3.298 69.53,0.35 81.585,0.35 
		81.585,3.298 	"/>
	<polygon fill="#FFFFFF" points="95.299,0.35 95.299,3.385 87.7,3.385 87.7,6.53 94.535,6.53 94.535,9.434 87.7,9.434 87.7,12.601 
		95.54,12.601 95.54,15.615 84.292,15.615 84.292,0.35 	"/>
	<path fill="#FFFFFF" d="M108.708,7.84h3.429v5.417c-1.515,1.688-3.611,2.533-6.289,2.533c-2.242,0-4.124-0.743-5.646-2.228
		c-1.521-1.485-2.282-3.359-2.282-5.624c0-2.264,0.775-4.153,2.326-5.667S103.667,0,105.858,0c2.19,0,4.095,0.721,5.711,2.162
		l-1.77,2.555c-0.685-0.597-1.313-1.008-1.889-1.234c-0.575-0.226-1.197-0.338-1.867-0.338c-1.296,0-2.388,0.44-3.275,1.321
		c-0.889,0.881-1.332,2.042-1.332,3.483c0,1.441,0.426,2.595,1.277,3.461s1.867,1.299,3.046,1.299c1.18,0,2.162-0.225,2.948-0.677
		V7.84z"/>
	<path fill="#FFFFFF" d="M127.772,5.416c0,2.446-0.968,4.026-2.904,4.739l3.865,5.459h-4.192l-3.385-4.869h-2.359v4.869h-3.406V0.35
		h5.787c2.373,0,4.065,0.401,5.077,1.201C127.266,2.352,127.772,3.64,127.772,5.416 M123.667,7.229
		c0.422-0.378,0.634-0.979,0.634-1.802c0-0.822-0.219-1.386-0.655-1.692s-1.201-0.459-2.293-0.459h-2.556v4.521h2.49
		C122.451,7.796,123.245,7.607,123.667,7.229"/>
	<rect x="131.485" y="0.35" fill="#FFFFFF" width="3.406" height="15.265"/>
	<polygon fill="#FFFFFF" points="145.33,3.298 145.33,15.615 141.923,15.615 141.923,3.298 137.599,3.298 137.599,0.35 
		149.654,0.35 149.654,3.298 	"/>
	<polygon fill="#FFFFFF" points="158.935,15.615 155.528,15.615 155.528,9.587 150.244,0.35 153.934,0.35 157.232,6.028 
		160.529,0.35 164.219,0.35 158.935,9.587 	"/>
	<g>
		<g>
			<defs>
				<polygon id="XMLID_55_" points="3.003,10.625 0,15.829 5.201,24.833 13.413,10.623 				"/>
			</defs>
			<clipPath id="XMLID_67_">
				<use xlink:href="#XMLID_55_" />
			</clipPath>
		</g>
		<g>
			<defs>
				<polygon id="XMLID_57_" points="30.254,5.221 27.279,0.07 16.873,0.073 25.056,14.256 				"/>
			</defs>
			<clipPath id="XMLID_68_">
				<use xlink:href="#XMLID_57_" />
			</clipPath>
		</g>
		<g>
			<defs>
				<polygon id="XMLID_59_" points="15.104,0.073 9.091,0.075 3.887,9.094 20.282,9.09 				"/>
			</defs>
			<clipPath id="XMLID_69_">
				<use xlink:href="#XMLID_59_" />
			</clipPath>
		</g>
		<g>
			<defs>
				<polygon id="XMLID_61_" points="31.14,6.754 22.957,21.026 33.375,21.024 36.377,15.821 				"/>
			</defs>
			<clipPath id="XMLID_70_">
				<use xlink:href="#XMLID_61_" />
			</clipPath>
		</g>
		<g>
			<defs>
				<polygon id="XMLID_63_" points="21.197,31.577 27.287,31.575 32.491,22.556 16.018,22.558 				"/>
			</defs>
			<clipPath id="XMLID_71_">
				<use xlink:href="#XMLID_63_" />
			</clipPath>
		</g>
		<g>
			<defs>
				<polygon id="XMLID_65_" points="6.085,26.362 9.098,31.579 19.434,31.577 11.301,17.5 				"/>
			</defs>
			<clipPath id="XMLID_72_">
				<use xlink:href="#XMLID_65_" />
			</clipPath>
		</g>
	</g>
	<g opacity="0.4">
		<path fill="#FFFFFF" d="M47.146,31.177c-0.583-0.32-1.04-0.764-1.371-1.328c-0.331-0.566-0.496-1.207-0.496-1.922
			c0-0.717,0.166-1.357,0.496-1.924c0.331-0.564,0.788-1.004,1.371-1.322c0.583-0.316,1.247-0.475,1.991-0.475
			c0.661,0,1.251,0.133,1.771,0.4c0.519,0.266,0.92,0.65,1.205,1.156l-1.005,0.648c-0.23-0.35-0.515-0.611-0.854-0.787
			c-0.34-0.174-0.716-0.262-1.13-0.262c-0.478,0-0.907,0.105-1.288,0.318c-0.381,0.211-0.68,0.512-0.896,0.902
			s-0.324,0.838-0.324,1.344c0,0.514,0.108,0.965,0.324,1.355s0.515,0.691,0.896,0.902c0.381,0.213,0.811,0.318,1.288,0.318
			c0.414,0,0.79-0.088,1.13-0.262c0.34-0.176,0.625-0.438,0.854-0.785l1.005,0.633c-0.285,0.506-0.687,0.893-1.205,1.164
			c-0.519,0.271-1.109,0.406-1.771,0.406C48.393,31.659,47.729,31.499,47.146,31.177z"/>
		<path fill="#FFFFFF" d="M56.108,24.536c0.45-0.221,0.997-0.33,1.64-0.33v1.281c-0.074-0.01-0.175-0.014-0.303-0.014
			c-0.716,0-1.279,0.213-1.688,0.641c-0.409,0.428-0.613,1.035-0.613,1.826v3.637h-1.323v-7.303h1.268v1.227
			C55.318,25.079,55.658,24.757,56.108,24.536z"/>
		<path fill="#FFFFFF" d="M66.138,24.274l-3.541,8.033c-0.313,0.744-0.677,1.268-1.095,1.57s-0.921,0.455-1.509,0.455
			c-0.358,0-0.705-0.059-1.041-0.172c-0.335-0.115-0.613-0.283-0.833-0.504l0.565-0.992c0.376,0.357,0.813,0.537,1.309,0.537
			c0.321,0,0.59-0.084,0.806-0.254c0.215-0.17,0.411-0.463,0.585-0.875l0.234-0.51l-3.224-7.289h1.377l2.549,5.842l2.521-5.842
			H66.138z"/>
		<path fill="#FFFFFF" d="M73.151,24.675c0.56,0.313,0.999,0.748,1.316,1.309c0.316,0.561,0.475,1.207,0.475,1.943
			c0,0.734-0.159,1.385-0.475,1.949c-0.317,0.564-0.756,1.002-1.316,1.314c-0.561,0.313-1.194,0.469-1.901,0.469
			c-0.523,0-1.003-0.102-1.439-0.303c-0.437-0.203-0.806-0.496-1.109-0.883v3.775h-1.322v-9.975h1.267v1.158
			c0.294-0.404,0.666-0.711,1.116-0.916c0.45-0.207,0.946-0.311,1.488-0.311C71.957,24.206,72.59,24.362,73.151,24.675z
			 M72.4,30.179c0.372-0.217,0.666-0.52,0.882-0.91s0.324-0.838,0.324-1.342c0-0.506-0.108-0.953-0.324-1.344
			s-0.51-0.691-0.882-0.902c-0.372-0.213-0.792-0.318-1.261-0.318c-0.459,0-0.875,0.109-1.247,0.324
			c-0.372,0.217-0.666,0.518-0.882,0.902c-0.216,0.387-0.324,0.832-0.324,1.338c0,0.504,0.105,0.951,0.317,1.342
			c0.211,0.391,0.505,0.693,0.882,0.91c0.376,0.215,0.794,0.324,1.253,0.324C71.608,30.503,72.028,30.394,72.4,30.179z"/>
		<path fill="#FFFFFF" d="M80.88,31.149c-0.193,0.166-0.432,0.293-0.716,0.379c-0.285,0.088-0.579,0.131-0.882,0.131
			c-0.735,0-1.304-0.197-1.708-0.592c-0.404-0.395-0.606-0.961-0.606-1.695v-4.01h-1.24v-1.088h1.24v-1.598h1.322v1.598h2.095v1.088
			H78.29v3.955c0,0.395,0.099,0.697,0.296,0.91c0.198,0.211,0.48,0.316,0.848,0.316c0.404,0,0.749-0.115,1.033-0.344L80.88,31.149z"
			/>
		<path fill="#FFFFFF" d="M83.401,31.177c-0.579-0.32-1.031-0.764-1.356-1.328c-0.326-0.566-0.489-1.207-0.489-1.922
			c0-0.717,0.163-1.357,0.489-1.924c0.326-0.564,0.778-1.004,1.356-1.322c0.579-0.316,1.231-0.475,1.957-0.475
			s1.375,0.158,1.949,0.475c0.574,0.318,1.024,0.758,1.351,1.322c0.325,0.566,0.489,1.207,0.489,1.924
			c0,0.715-0.164,1.355-0.489,1.922c-0.326,0.564-0.776,1.008-1.351,1.328c-0.574,0.322-1.224,0.482-1.949,0.482
			S83.98,31.499,83.401,31.177z M86.619,30.179c0.372-0.217,0.663-0.52,0.875-0.91c0.211-0.391,0.316-0.838,0.316-1.342
			c0-0.506-0.105-0.953-0.316-1.344c-0.212-0.391-0.503-0.691-0.875-0.902c-0.372-0.213-0.792-0.318-1.261-0.318
			s-0.889,0.105-1.261,0.318c-0.372,0.211-0.666,0.512-0.882,0.902s-0.324,0.838-0.324,1.344c0,0.504,0.108,0.951,0.324,1.342
			s0.51,0.693,0.882,0.91c0.372,0.215,0.792,0.324,1.261,0.324S86.247,30.394,86.619,30.179z"/>
		<path fill="#FFFFFF" d="M98.791,31.149c-0.193,0.166-0.432,0.293-0.717,0.379c-0.284,0.088-0.578,0.131-0.881,0.131
			c-0.735,0-1.305-0.197-1.709-0.592s-0.606-0.961-0.606-1.695v-4.01h-1.239v-1.088h1.239v-1.598h1.323v1.598h2.094v1.088h-2.094
			v3.955c0,0.395,0.099,0.697,0.296,0.91c0.197,0.211,0.479,0.316,0.848,0.316c0.404,0,0.748-0.115,1.033-0.344L98.791,31.149z"/>
		<path fill="#FFFFFF" d="M102.676,24.536c0.449-0.221,0.996-0.33,1.639-0.33v1.281c-0.073-0.01-0.175-0.014-0.303-0.014
			c-0.717,0-1.279,0.213-1.688,0.641c-0.408,0.428-0.612,1.035-0.612,1.826v3.637h-1.322v-7.303h1.267v1.227
			C101.886,25.079,102.225,24.757,102.676,24.536z"/>
		<path fill="#FFFFFF" d="M112.843,24.274v7.303h-1.254v-1.104c-0.267,0.377-0.618,0.67-1.054,0.877
			c-0.437,0.205-0.912,0.309-1.426,0.309c-0.974,0-1.741-0.268-2.301-0.807c-0.561-0.537-0.841-1.328-0.841-2.375v-4.203h1.322
			v4.051c0,0.707,0.17,1.242,0.51,1.605s0.827,0.543,1.461,0.543c0.698,0,1.249-0.211,1.653-0.633s0.606-1.02,0.606-1.791v-3.775
			H112.843z"/>
		<path fill="#FFFFFF" d="M115.737,31.419c-0.552-0.162-0.983-0.365-1.295-0.613l0.551-1.047c0.321,0.229,0.712,0.412,1.171,0.551
			c0.459,0.137,0.923,0.207,1.392,0.207c1.157,0,1.736-0.332,1.736-0.992c0-0.221-0.078-0.395-0.234-0.523s-0.352-0.223-0.586-0.283
			s-0.567-0.127-0.999-0.199c-0.588-0.092-1.067-0.197-1.439-0.316s-0.691-0.322-0.958-0.607c-0.266-0.285-0.399-0.684-0.399-1.199
			c0-0.66,0.275-1.191,0.827-1.59c0.551-0.4,1.29-0.6,2.218-0.6c0.487,0,0.974,0.059,1.461,0.18c0.486,0.119,0.886,0.279,1.198,0.48
			l-0.564,1.049c-0.598-0.387-1.3-0.58-2.108-0.58c-0.561,0-0.987,0.092-1.281,0.275s-0.44,0.428-0.44,0.73
			c0,0.24,0.082,0.428,0.247,0.566c0.166,0.137,0.37,0.238,0.613,0.303c0.244,0.064,0.586,0.137,1.026,0.221
			c0.588,0.1,1.063,0.209,1.426,0.322c0.363,0.115,0.674,0.311,0.931,0.586s0.386,0.662,0.386,1.158c0,0.66-0.282,1.188-0.848,1.576
			c-0.564,0.391-1.334,0.586-2.308,0.586C116.862,31.659,116.288,31.579,115.737,31.419z"/>
		<path fill="#FFFFFF" d="M126.373,31.149c-0.193,0.166-0.432,0.293-0.717,0.379c-0.284,0.088-0.578,0.131-0.881,0.131
			c-0.735,0-1.305-0.197-1.709-0.592s-0.606-0.961-0.606-1.695v-4.01h-1.24v-1.088h1.24v-1.598h1.323v1.598h2.094v1.088h-2.094
			v3.955c0,0.395,0.099,0.697,0.296,0.91c0.197,0.211,0.479,0.316,0.847,0.316c0.404,0,0.749-0.115,1.034-0.344L126.373,31.149z"/>
	</g>
</g>
</svg>
