<?xml version="1.0" encoding="utf-8"?>
<!-- Generator: Adobe Illustrator 17.0.0, SVG Export Plug-In . SVG Version: 6.00 Build 0)  -->
<!DOCTYPE svg PUBLIC "-//W3C//DTD SVG 1.1//EN" "http://www.w3.org/Graphics/SVG/1.1/DTD/svg11.dtd">
<svg version="1.1" id="Capa_1" xmlns="http://www.w3.org/2000/svg" xmlns:xlink="http://www.w3.org/1999/xlink" x="0px" y="0px"
	 width="20px" height="20px" viewBox="261.844 261.842 20 20" enable-background="new 261.844 261.842 20 20" xml:space="preserve">
<g>
	<g>
		<path d="M280.313,266.375c-0.089,0.026-0.177,0.05-0.266,0.073c-0.542,0.137-0.592-0.044-0.2-0.443
			c0.176-0.179,0.331-0.373,0.466-0.583c0.303-0.471,0.04-0.676-0.475-0.456c-0.184,0.078-0.37,0.15-0.559,0.213
			c-0.53,0.178-1.283-0.091-1.755-0.39c-0.597-0.378-1.274-0.567-2.034-0.567c-1.064,0-1.971,0.375-2.721,1.125
			c-0.75,0.75-1.125,1.657-1.125,2.721c0,0.145,0.008,0.293,0.025,0.443c0.027,0.244-0.384,0.42-0.938,0.342
			c-1.198-0.169-2.337-0.532-3.416-1.089c-1.07-0.552-2.014-1.246-2.833-2.084c-0.391-0.4-0.921-0.366-1.067,0.174
			c-0.088,0.324-0.131,0.661-0.131,1.01c0,0.659,0.155,1.27,0.464,1.834c0.154,0.28,0.334,0.534,0.541,0.761
			c0.348,0.382,0.295,0.604-0.19,0.468c-0.485-0.136-0.84-0.338-0.84-0.325s0,0.024,0,0.024c0,0.929,0.292,1.745,0.875,2.447
			c0.359,0.433,0.777,0.767,1.253,1.003c0.501,0.248,0.735,0.387,0.455,0.423c-0.169,0.022-0.339,0.033-0.511,0.033
			c-0.116,0-0.237-0.005-0.364-0.016c-0.201-0.017-0.237,0.401,0.067,0.871c0.242,0.373,0.551,0.702,0.928,0.985
			c0.383,0.289,0.796,0.496,1.239,0.622c0.538,0.153,0.646,0.433,0.166,0.721c-1.187,0.712-2.501,1.069-3.942,1.069
			c-0.162,0-0.317-0.004-0.465-0.011c-0.257-0.012-0.084,0.214,0.411,0.473c1.549,0.811,3.226,1.216,5.031,1.216
			c1.365,0,2.647-0.216,3.846-0.649c1.198-0.433,2.223-1.012,3.072-1.739s1.582-1.562,2.197-2.507
			c0.615-0.945,1.073-1.931,1.375-2.959c0.301-1.028,0.452-2.058,0.452-3.09c0-0.093-0.001-0.176-0.002-0.25
			c-0.003-0.138,0.363-0.512,0.771-0.895c0.184-0.173,0.36-0.354,0.528-0.544C281.014,266.411,280.85,266.218,280.313,266.375z"/>
	</g>
</g>
</svg>
