<?xml version="1.0" encoding="utf-8"?>
<!-- Generator: Adobe Illustrator 17.0.0, SVG Export Plug-In . SVG Version: 6.00 Build 0)  -->
<!DOCTYPE svg PUBLIC "-//W3C//DTD SVG 1.1//EN" "http://www.w3.org/Graphics/SVG/1.1/DTD/svg11.dtd">
<svg version="1.1" id="Capa_1" xmlns="http://www.w3.org/2000/svg" xmlns:xlink="http://www.w3.org/1999/xlink" x="0px" y="0px"
	 width="20px" height="20px" viewBox="38.438 38.438 20 20" enable-background="new 38.438 38.438 20 20" xml:space="preserve">
<g>
	<path d="M58.092,43.71c-0.245-1.064-1.115-1.848-2.162-1.965c-2.48-0.277-4.99-0.278-7.489-0.277c-2.499-0.001-5.01,0-7.49,0.277
		c-1.047,0.117-1.916,0.902-2.161,1.965c-0.348,1.515-0.352,3.168-0.352,4.728s0,3.213,0.348,4.727
		c0.244,1.063,1.114,1.848,2.161,1.965c2.48,0.277,4.99,0.279,7.489,0.277c2.5,0.001,5.009,0,7.489-0.277
		c1.047-0.117,1.917-0.902,2.162-1.965c0.349-1.515,0.35-3.168,0.35-4.727C58.438,46.878,58.44,45.225,58.092,43.71z M45.857,51.542
		c0-2.212,0-4.402,0-6.614c2.12,1.106,4.225,2.204,6.358,3.317C50.088,49.348,47.982,50.44,45.857,51.542z"/>
</g>
</svg>
