<?xml version="1.0" encoding="utf-8"?>
<!-- Generator: Adobe Illustrator 17.0.0, SVG Export Plug-In . SVG Version: 6.00 Build 0)  -->
<!DOCTYPE svg PUBLIC "-//W3C//DTD SVG 1.1//EN" "http://www.w3.org/Graphics/SVG/1.1/DTD/svg11.dtd">
<svg version="1.1" id="Capa_1" xmlns="http://www.w3.org/2000/svg" xmlns:xlink="http://www.w3.org/1999/xlink" x="0px" y="0px"
	 width="20px" height="20px" viewBox="87.887 487.887 20 20" enable-background="new 87.887 487.887 20 20" xml:space="preserve">
<g>
	<g>
		<path d="M101.863,487.887H99.78c-1.594,0-2.739,0.378-3.434,1.135c-0.696,0.757-1.044,1.871-1.044,3.344v1.404
			c0,0.371-0.301,0.672-0.672,0.672h-0.72c-0.371,0-0.672,0.301-0.672,0.672v2.103c0,0.371,0.301,0.672,0.672,0.672h0.72
			c0.371,0,0.672,0.301,0.672,0.672v8.657c0,0.371,0.301,0.672,0.672,0.672h2.795c0.371,0,0.672-0.301,0.672-0.672v-8.657
			c0-0.371,0.301-0.672,0.672-0.672h1.412c0.371,0,0.703-0.299,0.742-0.668l0.223-2.111c0.039-0.369-0.23-0.668-0.601-0.668h-1.776
			c-0.371,0-0.672-0.301-0.672-0.672v-1.052c0-0.259,0.012-0.459,0.036-0.601c0.024-0.141,0.079-0.281,0.164-0.419
			c0.085-0.137,0.223-0.233,0.413-0.285c0.19-0.053,0.443-0.079,0.758-0.079h1.052c0.371,0,0.672-0.301,0.672-0.672v-2.103
			C102.535,488.187,102.234,487.887,101.863,487.887z"/>
	</g>
</g>
</svg>
